<?xml version="1.0" encoding="iso-8859-1"?>
<!-- Uploaded to: SVG Repo, www.svgrepo.com, Generator: SVG Repo Mixer Tools -->
<!DOCTYPE svg PUBLIC "-//W3C//DTD SVG 1.1//EN" "http://www.w3.org/Graphics/SVG/1.1/DTD/svg11.dtd">
<svg fill="#000000" height="800px" width="800px" version="1.1" id="Capa_1" xmlns="http://www.w3.org/2000/svg" xmlns:xlink="http://www.w3.org/1999/xlink" 
	 viewBox="0 0 459.535 459.535" xml:space="preserve">
<g id="XMLID_20_">
	<path id="XMLID_232_" d="M125.792,317.478v34.512L98.05,431.017c-3.918,11.161,1.954,23.385,13.115,27.303
		c11.161,3.918,23.385-1.954,27.303-13.115l28.951-82.47c3.833-10.485-0.807-17.659-0.807-17.659L125.792,317.478z"/>
	<circle id="XMLID_912_" cx="203.476" cy="79.794" r="36.991"/>
	<path id="XMLID_915_" d="M214.746,308.143c-1.639-3.024-3.983-5.608-6.831-7.535l-70.701-47.801l-0.077,8.712
		c-0.116,13.146-7.57,24.606-18.431,30.484l60.879,41.159l45.87,82.143c5.65,10.418,18.657,14.248,29.038,8.62
		c10.399-5.639,14.257-18.639,8.62-29.038L214.746,308.143z"/>
	<path id="XMLID_916_" d="M337.324,0c-20.681,0-37.482,16.566-37.884,37.15c-4.454,1.344-8.384,4.408-10.694,8.865l-35.471,68.446
		l-46.296,18.072l-41.564-15.764c-12.904-4.894-27.332,1.599-32.226,14.503l-4.531,11.947l26.901-9.22L93.08,173.524l0,0
		c-4.959,3.233-8.048,8.76-8.101,14.795l-0.67,72.734c-0.088,9.853,7.831,17.918,17.69,18.005H102
		c0.054,0.001,0.106,0.001,0.16,0.001c9.64,0,17.757-7.815,17.844-17.691l0.545-61.737l56.867-37.07l-39.791,43.76l-0.367,41.617
		l45.898,18.185l38.272-100.911l51.091-19.943c4.037-1.576,7.363-4.566,9.357-8.414l34.809-67.168
		c5.94,3.866,13.025,6.12,20.64,6.12c20.934,0,37.904-16.97,37.904-37.903S358.257,0,337.324,0z"/>
</g>
</svg>